<svg width="114" height="99" viewBox="0 0 114 99" fill="none" xmlns="http://www.w3.org/2000/svg">
<circle cx="36" cy="62.9999" r="36" fill="#FF9900"/>
<g clip-path="url(#clip0_406480_4300)">
<path fill-rule="evenodd" clip-rule="evenodd" d="M60.6782 9.29409C60.8396 9.01294 61.1974 8.91645 61.4774 9.07859L95.7069 28.9031C95.9869 29.0652 96.0829 29.4246 95.9215 29.7057C95.7601 29.9869 95.4023 30.0834 95.1223 29.9212L60.8928 10.0967C60.6128 9.9346 60.5168 9.57525 60.6782 9.29409Z" fill="black"/>
<path fill-rule="evenodd" clip-rule="evenodd" d="M74.1011 1.12491C75.3777 0.387964 76.8258 0 78.2999 0C79.7739 0 81.222 0.387964 82.4986 1.12491C82.499 1.12515 82.4994 1.12538 82.4999 1.12561L109.8 16.7288C111.076 17.4654 112.135 18.5247 112.872 19.8003C113.609 21.0758 113.998 22.5229 114 23.9962V55.2038C113.998 56.6771 113.609 58.1241 112.872 59.3997C112.135 60.6753 111.076 61.7346 109.8 62.4712L109.798 62.4726L82.4999 78.0744C82.4996 78.0745 82.4994 78.0746 82.4992 78.0748C81.2224 78.8119 79.7741 79.2 78.2999 79.2C76.8256 79.2 75.3773 78.8119 74.1005 78.0748C74.1003 78.0746 74.1001 78.0745 74.0999 78.0744L46.8022 62.4726L46.7999 62.4712C45.5242 61.7346 44.4646 60.6753 43.7274 59.3997C42.9902 58.1241 42.6014 56.6771 42.5999 55.2038V23.9962C42.6014 22.5229 42.9902 21.0758 43.7274 19.8003C44.4646 18.5247 45.5242 17.4654 46.7999 16.7288L46.8022 16.7274L74.0999 1.12561C74.1003 1.12538 74.1007 1.12515 74.1011 1.12491ZM78.2999 1.20024C77.036 1.20024 75.7944 1.53299 74.6999 2.16505L74.6975 2.16638L47.3999 17.7682C47.3994 17.7684 47.399 17.7687 47.3986 17.7689C46.3057 18.4003 45.3979 19.308 44.7663 20.4009C44.1345 21.4942 43.8012 22.7344 43.7999 23.9972V55.2028C43.8012 56.4656 44.1345 57.7058 44.7663 58.7991C45.3979 59.892 46.3056 60.7996 47.3985 61.431C47.3989 61.4313 47.3994 61.4315 47.3999 61.4318L74.6999 77.0349C75.7944 77.667 77.036 77.9998 78.2999 77.9998C79.5637 77.9998 80.8053 77.667 81.8999 77.0349L81.9022 77.0336L109.2 61.4318C109.2 61.4315 109.201 61.4313 109.201 61.431C110.294 60.7996 111.202 59.892 111.833 58.7991C112.465 57.7057 112.799 56.4654 112.8 55.2025V23.9975C112.799 22.7346 112.465 21.4943 111.833 20.4009C111.202 19.308 110.294 18.4003 109.201 17.7689C109.201 17.7687 109.2 17.7684 109.2 17.7682L81.9022 2.16638L81.8999 2.16505C80.8053 1.53299 79.5637 1.20024 78.2999 1.20024Z" fill="black"/>
<path fill-rule="evenodd" clip-rule="evenodd" d="M43.8795 20.0926C44.0433 19.8125 44.4056 19.7168 44.6887 19.8788L77.9998 38.9375L111.311 19.8788C111.594 19.7168 111.956 19.8125 112.12 20.0926C112.284 20.3726 112.187 20.7309 111.904 20.8929L78.2964 40.1213C78.1129 40.2262 77.8867 40.2262 77.7033 40.1213L44.0956 20.8929C43.8125 20.7309 43.7157 20.3726 43.8795 20.0926Z" fill="black"/>
<path fill-rule="evenodd" clip-rule="evenodd" d="M77.9999 39C78.3313 39 78.5999 39.2626 78.5999 39.5865V78.0135C78.5999 78.3374 78.3313 78.6 77.9999 78.6C77.6685 78.6 77.3999 78.3374 77.3999 78.0135V39.5865C77.3999 39.2626 77.6685 39 77.9999 39Z" fill="black"/>
</g>
<defs>
<clipPath id="clip0_406480_4300">
<rect width="71.4" height="79.2" fill="white" transform="translate(42.5999)"/>
</clipPath>
</defs>
</svg>
