<svg width="114" height="99" viewBox="0 0 114 99" fill="none" xmlns="http://www.w3.org/2000/svg">
<circle cx="38.4" cy="60.6" r="38.0806" fill="#FF9900" stroke="#FF9900" stroke-width="0.63871"/>
<path fill-rule="evenodd" clip-rule="evenodd" d="M73.0065 30.0193C67.3625 30.0193 62.7872 34.5947 62.7872 40.2387C62.7872 45.8827 67.3625 50.4581 73.0065 50.4581C78.6505 50.4581 83.2259 45.8827 83.2259 40.2387C83.2259 34.5947 78.6505 30.0193 73.0065 30.0193ZM61.5098 40.2387C61.5098 33.8892 66.657 28.7419 73.0065 28.7419C79.356 28.7419 84.5033 33.8892 84.5033 40.2387C84.5033 46.5882 79.356 51.7355 73.0065 51.7355C66.657 51.7355 61.5098 46.5882 61.5098 40.2387Z" fill="black"/>
<path fill-rule="evenodd" clip-rule="evenodd" d="M73.3259 1.28078C71.5709 1.28078 69.8877 1.97797 68.6467 3.21896C67.4057 4.45996 66.7085 6.14311 66.7085 7.89815V8.51506L66.7085 8.51761C66.7034 9.81023 66.3203 11.0731 65.6066 12.1508C64.8929 13.2286 63.8796 14.0741 62.6915 14.5833C62.6118 14.6174 62.526 14.6351 62.4392 14.6351H62.2804C61.1023 15.1259 59.8065 15.2665 58.5488 15.0385C57.2457 14.8022 56.0433 14.181 55.0966 13.2549L55.0915 13.25L54.8738 13.0322C54.2592 12.417 53.5292 11.9286 52.7258 11.5956C51.9225 11.2626 51.0614 11.0912 50.1918 11.0912C49.3222 11.0912 48.4611 11.2626 47.6577 11.5956C46.8544 11.9286 46.1246 12.4167 45.51 13.032L45.5095 13.0325C44.8942 13.6471 44.4061 14.3769 44.0731 15.1802C43.7401 15.9835 43.5687 16.8446 43.5687 17.7143C43.5687 18.5839 43.7401 19.445 44.0731 20.2483C44.4061 21.0517 44.8942 21.7815 45.5095 22.3961L45.7325 22.619C46.6585 23.5658 47.2797 24.7682 47.516 26.0713C47.7511 27.3678 47.5944 28.7047 47.0662 29.9115C46.6058 31.1517 45.7847 32.2259 44.7084 32.9956C43.6266 33.7694 42.3371 34.1997 41.0075 34.2308L40.9926 34.231H40.666C38.9109 34.231 37.2278 34.9282 35.9868 36.1692C34.7458 37.4102 34.0486 39.0933 34.0486 40.8484C34.0486 42.6034 34.7458 44.2866 35.9868 45.5276C37.2278 46.7686 38.9109 47.4657 40.666 47.4657H41.2854C42.5781 47.4709 43.8409 47.8539 44.9187 48.5676C45.9954 49.2807 46.8404 50.2929 47.3498 51.4796C47.8834 52.6904 48.0424 54.0332 47.8063 55.3351C47.57 56.6382 46.9488 57.8407 46.0227 58.7874L46.0178 58.7924L45.8 59.0101C45.1848 59.6247 44.6964 60.3548 44.3634 61.1581C44.0304 61.9614 43.859 62.8225 43.859 63.6922C43.859 64.5618 44.0304 65.4229 44.3634 66.2262C44.6964 67.0296 45.1845 67.7594 45.7998 68.374L45.8003 68.3745C46.4149 68.9897 47.1447 69.4778 47.948 69.8108C48.7514 70.1438 49.6125 70.3153 50.4821 70.3153C51.3517 70.3153 52.2128 70.1438 53.0161 69.8108C53.8195 69.4778 54.5493 68.9897 55.1639 68.3745L55.3869 68.1515C56.3336 67.2254 57.536 66.6042 58.8391 66.368C60.1356 66.1329 61.4725 66.2896 62.6793 66.8178C63.9195 67.2782 64.9937 68.0993 65.7635 69.1756C66.5372 70.2573 66.9676 71.5468 66.9987 72.8764L66.9988 72.8914V73.218C66.9988 74.973 67.696 76.6562 68.937 77.8972C70.178 79.1382 71.8612 79.8353 73.6162 79.8353C75.3712 79.8353 77.0544 79.1382 78.2954 77.8972C79.5364 76.6562 80.2336 74.973 80.2336 73.218V72.6011L80.2336 72.5985C80.2387 71.3059 80.6217 70.043 81.3355 68.9653C82.0485 67.8886 83.0605 67.0437 84.2471 66.5343C85.458 66.0006 86.8009 65.8415 88.1029 66.0776C89.406 66.3139 90.6085 66.9351 91.5552 67.8612L91.5602 67.8661L91.778 68.0839C92.3925 68.6992 93.1226 69.1875 93.9259 69.5205C94.7293 69.8535 95.5904 70.0249 96.46 70.0249C97.3296 70.0249 98.1907 69.8535 98.994 69.5205C99.7974 69.1875 100.527 68.6994 101.142 68.0842L101.142 68.0836C101.758 67.4691 102.246 66.7393 102.579 65.9359C102.912 65.1326 103.083 64.2715 103.083 63.4019C103.083 62.5322 102.912 61.6711 102.579 60.8678C102.246 60.0645 101.758 59.3346 101.142 58.7201L100.919 58.4971C99.9932 57.5504 99.372 56.3479 99.1358 55.0448C98.8997 53.7427 99.0588 52.3998 99.5925 51.189C100.102 50.0024 100.947 48.9904 102.023 48.2773C103.101 47.5636 104.364 47.1806 105.657 47.1754L105.659 47.1754L105.986 47.1754C107.741 47.1754 109.424 46.4782 110.665 45.2372C111.906 43.9963 112.603 42.3131 112.603 40.5581C112.603 38.803 111.906 37.1199 110.665 35.8789C109.424 34.6379 107.741 33.9407 105.986 33.9407H105.369L105.366 33.9407C104.074 33.9355 102.811 33.5525 101.733 32.8388C100.655 32.1251 99.8099 31.1118 99.3007 29.9237C99.2665 29.844 99.2489 29.7582 99.2489 29.6714V29.5126C98.7581 28.3345 98.6174 27.0387 98.8455 25.781C99.0817 24.4779 99.703 23.2755 100.629 22.3288L100.634 22.3237L100.852 22.106C101.467 21.4914 101.955 20.7613 102.288 19.958C102.621 19.1547 102.793 18.2936 102.793 17.424C102.793 16.5543 102.621 15.6932 102.288 14.8899C101.955 14.0866 101.467 13.3567 100.852 12.7422L100.851 12.7417C100.237 12.1264 99.5071 11.6383 98.7037 11.3053C97.9004 10.9723 97.0393 10.8009 96.1697 10.8009C95.3001 10.8009 94.439 10.9723 93.6356 11.3053C92.8323 11.6383 92.1025 12.1264 91.4879 12.7417L91.2649 12.9646C90.3182 13.8907 89.1157 14.5119 87.8126 14.7482C86.5107 14.9842 85.1679 14.8252 83.9571 14.2916C82.7704 13.7823 81.7582 12.9373 81.0452 11.8605C80.3314 10.7828 79.9484 9.51992 79.9433 8.2273L79.9433 8.22475V7.89815C79.9433 6.14311 79.2461 4.45996 78.0051 3.21896C76.7641 1.97797 75.0809 1.28078 73.3259 1.28078ZM67.7411 2.31331C69.2222 0.832124 71.2312 0 73.3259 0C75.4206 0 77.4295 0.832124 78.9107 2.31331C80.3919 3.7945 81.224 5.80343 81.224 7.89815L81.224 8.22219C81.224 8.22259 81.224 8.22299 81.224 8.22339C81.2284 9.26581 81.5374 10.2842 82.113 11.1534C82.6888 12.0228 83.5063 12.7049 84.4648 13.1157L84.4711 13.1185C85.4486 13.5498 86.5328 13.6786 87.5841 13.4879C88.6343 13.2975 89.6035 12.7972 90.3669 12.0514C90.3677 12.0506 90.3685 12.0498 90.3693 12.049L90.5817 11.8365C90.5817 11.8366 90.5818 11.8364 90.5817 11.8365C91.3152 11.1023 92.1865 10.5196 93.1452 10.1222C94.104 9.72468 95.1317 9.5201 96.1697 9.5201C97.2076 9.5201 98.2354 9.72468 99.1942 10.1222C100.153 10.5195 101.024 11.1019 101.757 11.836C102.491 12.5695 103.074 13.4406 103.471 14.3994C103.869 15.3583 104.074 16.386 104.074 17.424C104.074 18.4619 103.869 19.4897 103.471 20.4485C103.074 21.4073 102.491 22.2784 101.757 23.0119L101.545 23.2244C101.544 23.2252 101.543 23.226 101.542 23.2269C100.796 23.9903 100.296 24.9594 100.106 26.0095C99.9151 27.0608 100.044 28.1451 100.475 29.1225C100.511 29.204 100.53 29.2921 100.53 29.3811V29.5361C100.945 30.4442 101.606 31.2187 102.44 31.771C103.309 32.3465 104.328 32.6555 105.37 32.6599H105.986C108.081 32.6599 110.089 33.492 111.571 34.9732C113.052 36.4544 113.884 38.4633 113.884 40.5581C113.884 42.6528 113.052 44.6617 111.571 46.1429C110.089 47.6241 108.081 48.4562 105.986 48.4562L105.662 48.4562C105.661 48.4562 105.661 48.4562 105.661 48.4562C104.618 48.4606 103.6 48.7696 102.731 49.3452C101.861 49.921 101.179 50.7385 100.768 51.697L100.765 51.7033C100.334 52.6807 100.205 53.765 100.396 54.8163C100.586 55.8664 101.087 56.8355 101.832 57.5988C101.833 57.5997 101.834 57.6006 101.835 57.6015L102.047 57.8139C102.047 57.8138 102.048 57.814 102.047 57.8139C102.782 58.5474 103.364 59.4186 103.762 60.3773C104.159 61.3362 104.364 62.3639 104.364 63.4019C104.364 64.4398 104.159 65.4676 103.762 66.4264C103.364 67.3851 102.782 68.2561 102.048 68.9895C101.314 69.7238 100.443 70.3062 99.4845 70.7037C98.5257 71.1011 97.4979 71.3057 96.46 71.3057C95.422 71.3057 94.3943 71.1011 93.4355 70.7037C92.4768 70.3062 91.6058 69.7238 90.8723 68.9895C90.8722 68.9895 90.8724 68.9896 90.8723 68.9895L90.6596 68.7768C90.6587 68.7759 90.6579 68.7751 90.657 68.7742C89.8936 68.0285 88.9245 67.5283 87.8744 67.3379C86.8232 67.1472 85.7389 67.2759 84.7614 67.7073L84.7551 67.7101C83.7966 68.1209 82.9791 68.803 82.4033 69.6725C81.8277 70.5416 81.5187 71.56 81.5143 72.6024C81.5143 72.6028 81.5143 72.6032 81.5143 72.6036L81.5143 73.218C81.5143 75.3127 80.6822 77.3216 79.201 78.8028C77.7198 80.284 75.7109 81.1161 73.6162 81.1161C71.5215 81.1161 69.5126 80.284 68.0314 78.8028C66.5502 77.3216 65.718 75.3127 65.718 73.218V72.899C65.6916 71.829 65.3445 70.7914 64.7217 69.9206C64.0975 69.0479 63.2252 68.3832 62.2182 68.0128C62.2114 68.0103 62.2046 68.0077 62.1979 68.0049C62.1921 68.0026 62.1864 68.0002 62.1807 67.9976C61.2032 67.5662 60.1189 67.4376 59.0676 67.6282C58.0175 67.8186 57.0484 68.3189 56.285 69.0646C56.2842 69.0655 56.2833 69.0663 56.2825 69.0671L56.07 69.2796C55.3365 70.014 54.4654 70.5965 53.5066 70.994C52.5478 71.3914 51.52 71.596 50.4821 71.596C49.4441 71.596 48.4164 71.3914 47.4576 70.994C46.4988 70.5965 45.6277 70.014 44.8942 69.2796C44.16 68.5462 43.5777 67.6753 43.1803 66.7167C42.7828 65.7579 42.5782 64.7301 42.5782 63.6922C42.5782 62.6542 42.7828 61.6265 43.1803 60.6676C43.5777 59.7089 44.1602 58.838 44.8944 58.1045C44.8943 58.1046 44.8945 58.1044 44.8944 58.1045L45.1072 57.8918C45.108 57.891 45.1088 57.8901 45.1096 57.8893C45.8554 57.1259 46.3557 56.1568 46.5461 55.1066C46.7367 54.0553 46.608 52.971 46.1766 51.9936L46.1738 51.9873C45.763 51.0288 45.0809 50.2113 44.2115 49.6355C43.3424 49.0599 42.3239 48.7509 41.2815 48.7465C41.2811 48.7465 41.2807 48.7465 41.2803 48.7465L40.666 48.7465C38.5713 48.7465 36.5623 47.9144 35.0811 46.4332C33.5999 44.952 32.7678 42.9431 32.7678 40.8484C32.7678 38.7537 33.5999 36.7447 35.0811 35.2635C36.5623 33.7824 38.5713 32.9502 40.666 32.9502H40.9849C42.055 32.9237 43.0926 32.5767 43.9633 31.9539C44.836 31.3297 45.5008 30.4574 45.8711 29.4504C45.8758 29.4377 45.8809 29.4252 45.8863 29.4129C46.3177 28.4354 46.4464 27.3511 46.2558 26.2998C46.0654 25.2497 45.565 24.2805 44.8192 23.5171L44.6043 23.3022C43.87 22.5687 43.2874 21.6976 42.89 20.7388C42.4925 19.78 42.2879 18.7522 42.2879 17.7143C42.2879 16.6763 42.4925 15.6486 42.89 14.6897C43.2874 13.7309 43.87 12.8599 44.6043 12.1263C45.3378 11.3922 46.2087 10.8098 47.1673 10.4125C48.1261 10.015 49.1538 9.81041 50.1918 9.81041C51.2297 9.81041 52.2575 10.015 53.2163 10.4125C54.175 10.8099 55.046 11.3924 55.7795 12.1266C55.7794 12.1265 55.7796 12.1267 55.7795 12.1266L55.9947 12.3418C56.7581 13.0876 57.7272 13.5878 58.7773 13.7783C59.8286 13.9689 60.9129 13.8402 61.8904 13.4088C61.9718 13.3728 62.0599 13.3543 62.1489 13.3543H62.3039C63.212 12.9391 63.9865 12.2776 64.5388 11.4437C65.1144 10.5745 65.4234 9.55612 65.4277 8.5137V7.89815C65.4277 5.80343 66.2599 3.7945 67.7411 2.31331Z" fill="black"/>
</svg>
