<svg width="132" height="42" viewBox="0 0 132 42" fill="none" xmlns="http://www.w3.org/2000/svg">
<g clip-path="url(#clip0_406480_4081)">
<path d="M41.2059 21.2435C40.5616 21.6134 39.78 21.9058 38.8612 22.1205C37.9424 22.3353 36.9878 22.4427 35.9974 22.4427C34.6609 22.4427 33.5213 22.2816 32.5787 21.9594C31.6479 21.6373 30.9439 21.1898 30.4666 20.617C30.0012 20.0443 29.7686 19.382 29.7686 18.6303C29.7686 17.974 29.9475 17.3952 30.3055 16.8941C30.6635 16.3929 31.1587 16.0051 31.7911 15.7306C31.3019 15.4801 30.926 15.134 30.6635 14.6925C30.4129 14.2391 30.2876 13.7439 30.2876 13.2069C30.2876 12.5148 30.5024 11.8824 30.932 11.3096C31.3735 10.7369 32.0417 10.2775 32.9367 9.93142C33.8316 9.58538 34.9354 9.41235 36.2479 9.41235C37.0713 9.41235 37.8827 9.48992 38.6822 9.64504C39.4817 9.80016 40.1857 10.009 40.7942 10.2715L39.8277 12.9205C38.718 12.4313 37.5725 12.1867 36.3911 12.1867C35.5439 12.1867 34.9115 12.3 34.4939 12.5268C34.0762 12.7415 33.8674 13.0458 33.8674 13.4396C33.8674 14.1555 34.3865 14.5135 35.4246 14.5135H38.9686V17.2163H35.1919C34.5833 17.2163 34.1239 17.3177 33.8137 17.5205C33.5034 17.7115 33.3483 17.9978 33.3483 18.3797C33.3483 18.7854 33.575 19.1016 34.0285 19.3283C34.4819 19.555 35.1859 19.6684 36.1405 19.6684C36.8207 19.6684 37.5188 19.5789 38.2347 19.3999C38.9626 19.209 39.595 18.9524 40.132 18.6303L41.2059 21.2435Z" fill="white"/>
<path d="M50.3283 17.1089C51.4381 17.4788 51.9929 18.2425 51.9929 19.3999C51.9929 20.271 51.6528 20.9571 50.9727 21.4583C50.2925 21.9475 49.2902 22.1921 47.9657 22.1921H42.5065V12.491H47.7151C48.9799 12.491 49.9584 12.7117 50.6505 13.1532C51.3545 13.5947 51.7065 14.2152 51.7065 15.0147C51.7065 15.4801 51.5872 15.8917 51.3486 16.2497C51.1099 16.6077 50.7698 16.8941 50.3283 17.1089ZM45.5493 16.3929H47.4108C48.1984 16.3929 48.5921 16.1006 48.5921 15.5159C48.5921 14.955 48.1984 14.6746 47.4108 14.6746H45.5493V16.3929ZM47.6614 19.9906C48.4847 19.9906 48.8964 19.6923 48.8964 19.0956C48.8964 18.499 48.4967 18.2007 47.6972 18.2007H45.5493V19.9906H47.6614Z" fill="white"/>
<path d="M58.2571 18.7377H57.1116V22.1921H53.7108V12.491H57.1116V16.0707H58.3287L60.7092 12.491H64.3069L61.0493 17.1447L64.5217 22.1921H60.5124L58.2571 18.7377Z" fill="white"/>
<path d="M75.5294 12.491V22.1921H72.1286V15.1937H69.6764L69.6048 16.6793C69.5571 17.9441 69.4318 18.9882 69.229 19.8116C69.0261 20.6349 68.692 21.2793 68.2266 21.7447C67.7612 22.1981 67.1229 22.4248 66.3114 22.4248C65.8938 22.4248 65.3449 22.3473 64.6647 22.1921L64.8079 19.4178C65.0227 19.4417 65.1659 19.4536 65.2375 19.4536C65.6074 19.4536 65.8878 19.3343 66.0788 19.0956C66.2697 18.857 66.4009 18.5408 66.4725 18.147C66.5441 17.7413 66.5919 17.2043 66.6157 16.5361L66.7589 12.491H75.5294Z" fill="white"/>
<path d="M87.8024 12.491V22.1921H84.5627V21.1719C84.2047 21.5537 83.7751 21.8461 83.274 22.0489C82.7847 22.2518 82.2597 22.3532 81.6989 22.3532C80.434 22.3532 79.4257 21.9833 78.674 21.2435C77.9341 20.5037 77.5642 19.3939 77.5642 17.9143V12.491H80.965V17.3594C80.965 18.7556 81.5079 19.4536 82.5938 19.4536C83.1308 19.4536 83.5663 19.2687 83.9004 18.8987C84.2345 18.5169 84.4016 17.9382 84.4016 17.1626V12.491H87.8024Z" fill="white"/>
<path d="M100.413 12.491V20.4201C100.413 22.222 99.9237 23.5703 98.9453 24.4653C97.9668 25.3722 96.5587 25.8256 94.7211 25.8256C93.7665 25.8256 92.8716 25.7182 92.0363 25.5034C91.201 25.2886 90.491 24.9724 89.9063 24.5548L91.1413 22.1742C91.5351 22.4964 92.0303 22.747 92.627 22.926C93.2355 23.1169 93.8321 23.2124 94.4168 23.2124C95.3118 23.2124 95.9681 23.0155 96.3857 22.6217C96.8034 22.2279 97.0122 21.6432 97.0122 20.8676V20.5454C96.3559 21.3091 95.3953 21.691 94.1305 21.691C93.2713 21.691 92.4778 21.5 91.7499 21.1182C91.022 20.7244 90.4433 20.1755 90.0137 19.4715C89.5841 18.7556 89.3694 17.9322 89.3694 17.0015C89.3694 16.0827 89.5841 15.2712 90.0137 14.5672C90.4433 13.8513 91.022 13.3024 91.7499 12.9205C92.4778 12.5268 93.2713 12.3299 94.1305 12.3299C95.5146 12.3299 96.5289 12.7773 97.1733 13.6723V12.491H100.413ZM94.9359 18.9882C95.5445 18.9882 96.0456 18.8033 96.4394 18.4334C96.8451 18.0635 97.048 17.5862 97.048 17.0015C97.048 16.4168 96.8511 15.9454 96.4573 15.5875C96.0635 15.2175 95.5564 15.0326 94.9359 15.0326C94.3154 15.0326 93.8023 15.2175 93.3966 15.5875C93.0028 15.9454 92.8059 16.4168 92.8059 17.0015C92.8059 17.5862 93.0088 18.0635 93.4145 18.4334C93.8202 18.8033 94.3273 18.9882 94.9359 18.9882Z" fill="white"/>
<path d="M35.2862 26.9329V32.7742H33.6507V28.243H31.431V32.7742H29.8037V26.9329H35.2862Z" fill="white"/>
<path d="M38.8631 28.1763C39.3583 28.1763 39.7894 28.2709 40.1566 28.46C40.5237 28.6491 40.8047 28.9217 40.9994 29.2778C41.1997 29.6283 41.2998 30.0399 41.2998 30.5128C41.2998 30.9801 41.208 31.3918 41.0244 31.7478C40.8408 32.0983 40.5821 32.3709 40.2484 32.5656C39.9146 32.7548 39.5279 32.8493 39.0884 32.8493C38.5711 32.8493 38.165 32.6908 37.8701 32.3737V34.3931H36.2846V30.5295C36.2846 30.0622 36.3903 29.6505 36.6017 29.2945C36.8131 28.9384 37.1135 28.6631 37.5029 28.4683C37.8924 28.2736 38.3458 28.1763 38.8631 28.1763ZM38.788 31.5893C39.0718 31.5893 39.2998 31.4919 39.4723 31.2972C39.6503 31.0969 39.7393 30.8355 39.7393 30.5128C39.7393 30.1901 39.6503 29.9315 39.4723 29.7367C39.2998 29.5365 39.0718 29.4363 38.788 29.4363C38.5043 29.4363 38.2762 29.5365 38.1038 29.7367C37.9313 29.9315 37.8451 30.1901 37.8451 30.5128C37.8451 30.841 37.9285 31.1025 38.0954 31.2972C38.2679 31.4919 38.4987 31.5893 38.788 31.5893Z" fill="white"/>
<path d="M44.2941 32.8493C43.8101 32.8493 43.3734 32.7492 42.984 32.5489C42.5946 32.3486 42.2886 32.0705 42.0661 31.7144C41.8491 31.3584 41.7406 30.9551 41.7406 30.5045C41.7406 30.0594 41.8491 29.6589 42.0661 29.3028C42.2886 28.9468 42.5918 28.6714 42.9757 28.4767C43.3651 28.2764 43.8046 28.1763 44.2941 28.1763C44.7837 28.1763 45.2232 28.2764 45.6126 28.4767C46.002 28.6714 46.3052 28.9468 46.5222 29.3028C46.7391 29.6533 46.8476 30.0538 46.8476 30.5045C46.8476 30.9551 46.7391 31.3584 46.5222 31.7144C46.3052 32.0705 46.002 32.3486 45.6126 32.5489C45.2232 32.7492 44.7837 32.8493 44.2941 32.8493ZM44.2941 31.5893C44.5723 31.5893 44.8004 31.4947 44.9784 31.3056C45.1564 31.1108 45.2454 30.8438 45.2454 30.5045C45.2454 30.1707 45.1564 29.9092 44.9784 29.7201C44.8004 29.5309 44.5723 29.4363 44.2941 29.4363C44.016 29.4363 43.7879 29.5309 43.6099 29.7201C43.4318 29.9092 43.3428 30.1707 43.3428 30.5045C43.3428 30.8438 43.4318 31.1108 43.6099 31.3056C43.7879 31.4947 44.016 31.5893 44.2941 31.5893Z" fill="white"/>
<path d="M49.9861 31.6393C50.2031 31.6393 50.3895 31.6087 50.5452 31.5476C50.7066 31.4864 50.8679 31.3862 51.0292 31.2471L51.8554 32.115C51.427 32.6045 50.7872 32.8493 49.9361 32.8493C49.4076 32.8493 48.9431 32.7492 48.5425 32.5489C48.142 32.3486 47.8304 32.0705 47.6079 31.7144C47.3909 31.3584 47.2824 30.9551 47.2824 30.5045C47.2824 30.0594 47.3909 29.6616 47.6079 29.3112C47.8249 28.9551 48.1225 28.677 48.5008 28.4767C48.8846 28.2764 49.313 28.1763 49.7859 28.1763C50.2254 28.1763 50.6259 28.2681 50.9875 28.4517C51.3547 28.6297 51.6467 28.8939 51.8637 29.2444C52.0807 29.5893 52.1892 30.001 52.1892 30.4794L48.9597 31.0969C49.1322 31.4585 49.4743 31.6393 49.9861 31.6393ZM49.7942 29.3028C49.5216 29.3028 49.2991 29.389 49.1266 29.5615C48.9542 29.7284 48.8568 29.9704 48.8346 30.2875L50.6704 29.9287C50.6148 29.7395 50.5091 29.5893 50.3533 29.4781C50.1975 29.3612 50.0112 29.3028 49.7942 29.3028Z" fill="white"/>
<path d="M55.0648 31.1637H54.5307V32.7742H52.9452V28.2514H54.5307V29.9203H55.0981L56.208 28.2514H57.8853L56.3665 30.421L57.9854 32.7742H56.1162L55.0648 31.1637Z" fill="white"/>
<path d="M64.4025 28.1763C64.9588 28.1763 65.401 28.3432 65.7293 28.677C66.0631 29.0107 66.23 29.5142 66.23 30.1874V32.7742H64.6445V30.446C64.6445 30.1289 64.5833 29.8953 64.4609 29.7451C64.344 29.5949 64.1771 29.5198 63.9602 29.5198C63.721 29.5198 63.529 29.6032 63.3844 29.7701C63.2398 29.937 63.1674 30.1901 63.1674 30.5295V32.7742H61.5819V30.446C61.5819 29.8285 61.3538 29.5198 60.8977 29.5198C60.6529 29.5198 60.4582 29.6032 60.3135 29.7701C60.1689 29.937 60.0966 30.1901 60.0966 30.5295V32.7742H58.5111V28.2514H60.0215V28.727C60.1884 28.5434 60.3859 28.4071 60.6139 28.3181C60.8476 28.2236 61.1007 28.1763 61.3733 28.1763C61.6904 28.1763 61.9741 28.2347 62.2245 28.3515C62.4748 28.4683 62.6779 28.6464 62.8336 28.8856C63.0117 28.6575 63.237 28.4823 63.5096 28.3599C63.7822 28.2375 64.0798 28.1763 64.4025 28.1763Z" fill="white"/>
<path d="M67.1899 28.2514H68.7671V29.9287H70.3943V28.2514H71.9798V32.7742H70.3943V31.1887H68.7671V32.7742H67.1899V28.2514Z" fill="white"/>
<path d="M75.2021 32.9077C73.7056 32.9077 72.9574 32.2652 72.9574 30.9801V28.2514H74.5345V29.6867C74.6514 29.6088 74.8071 29.5448 75.0018 29.4947C75.2021 29.4447 75.4302 29.4196 75.6861 29.4196C76.2424 29.4196 76.6791 29.5615 76.9962 29.8452C77.3133 30.1234 77.4719 30.5378 77.4719 31.0886C77.4719 31.6838 77.266 32.1372 76.8544 32.4488C76.4483 32.7548 75.8975 32.9077 75.2021 32.9077ZM77.8474 28.2514H79.4329V32.7742H77.8474V28.2514ZM75.2021 31.8229C75.4191 31.8229 75.5832 31.759 75.6945 31.631C75.8057 31.503 75.8613 31.3334 75.8613 31.122C75.8613 30.9161 75.8057 30.7548 75.6945 30.638C75.5832 30.5211 75.4219 30.4627 75.2105 30.4627C75.0603 30.4627 74.9267 30.4906 74.8099 30.5462C74.6931 30.6018 74.6013 30.6769 74.5345 30.7715V31.122C74.5345 31.3389 74.5902 31.5114 74.7014 31.6393C74.8127 31.7617 74.9796 31.8229 75.2021 31.8229Z" fill="white"/>
<path d="M82.8924 31.6393C83.1094 31.6393 83.2958 31.6087 83.4515 31.5476C83.6129 31.4864 83.7742 31.3862 83.9355 31.2471L84.7617 32.115C84.3333 32.6045 83.6935 32.8493 82.8424 32.8493C82.3139 32.8493 81.8493 32.7492 81.4488 32.5489C81.0483 32.3486 80.7367 32.0705 80.5142 31.7144C80.2972 31.3584 80.1887 30.9551 80.1887 30.5045C80.1887 30.0594 80.2972 29.6616 80.5142 29.3112C80.7312 28.9551 81.0288 28.677 81.4071 28.4767C81.7909 28.2764 82.2193 28.1763 82.6922 28.1763C83.1317 28.1763 83.5322 28.2681 83.8938 28.4517C84.261 28.6297 84.553 28.8939 84.77 29.2444C84.987 29.5893 85.0954 30.001 85.0954 30.4794L81.866 31.0969C82.0385 31.4585 82.3806 31.6393 82.8924 31.6393ZM82.7005 29.3028C82.4279 29.3028 82.2054 29.389 82.0329 29.5615C81.8605 29.7284 81.7631 29.9704 81.7409 30.2875L83.5767 29.9287C83.5211 29.7395 83.4154 29.5893 83.2596 29.4781C83.1038 29.3612 82.9175 29.3028 82.7005 29.3028Z" fill="white"/>
<path d="M90.5497 32.8493C90.049 32.8493 89.6012 32.7492 89.2062 32.5489C88.8112 32.3486 88.5025 32.0705 88.2799 31.7144C88.063 31.3584 87.9545 30.9551 87.9545 30.5045C87.9545 30.0538 88.063 29.6533 88.2799 29.3028C88.5025 28.9468 88.8112 28.6714 89.2062 28.4767C89.6012 28.2764 90.049 28.1763 90.5497 28.1763C91.0615 28.1763 91.5038 28.2875 91.8765 28.5101C92.2493 28.727 92.5135 29.0302 92.6693 29.4196L91.4426 30.0455C91.2368 29.6394 90.9363 29.4363 90.5414 29.4363C90.2576 29.4363 90.0212 29.5309 89.8321 29.7201C89.6485 29.9092 89.5567 30.1707 89.5567 30.5045C89.5567 30.8438 89.6485 31.1108 89.8321 31.3056C90.0212 31.4947 90.2576 31.5893 90.5414 31.5893C90.9363 31.5893 91.2368 31.3862 91.4426 30.9801L92.6693 31.606C92.5135 31.9954 92.2493 32.3014 91.8765 32.5239C91.5038 32.7408 91.0615 32.8493 90.5497 32.8493Z" fill="white"/>
<path d="M97.9888 28.2514V32.7742H96.4784V32.2986C96.3115 32.4766 96.1112 32.6129 95.8776 32.7075C95.6495 32.802 95.4047 32.8493 95.1432 32.8493C94.5535 32.8493 94.0834 32.6769 93.733 32.332C93.3881 31.987 93.2156 31.4697 93.2156 30.7798V28.2514H94.8011V30.5211C94.8011 31.172 95.0542 31.4975 95.5605 31.4975C95.8108 31.4975 96.0139 31.4113 96.1696 31.2388C96.3254 31.0608 96.4033 30.791 96.4033 30.4294V28.2514H97.9888Z" fill="white"/>
<path d="M101.323 32.8493C100.822 32.8493 100.374 32.7492 99.9794 32.5489C99.5844 32.3486 99.2757 32.0705 99.0531 31.7144C98.8362 31.3584 98.7277 30.9551 98.7277 30.5045C98.7277 30.0538 98.8362 29.6533 99.0531 29.3028C99.2757 28.9468 99.5844 28.6714 99.9794 28.4767C100.374 28.2764 100.822 28.1763 101.323 28.1763C101.835 28.1763 102.277 28.2875 102.65 28.5101C103.022 28.727 103.287 29.0302 103.442 29.4196L102.216 30.0455C102.01 29.6394 101.71 29.4363 101.315 29.4363C101.031 29.4363 100.794 29.5309 100.605 29.7201C100.422 29.9092 100.33 30.1707 100.33 30.5045C100.33 30.8438 100.422 31.1108 100.605 31.3056C100.794 31.4947 101.031 31.5893 101.315 31.5893C101.71 31.5893 102.01 31.3862 102.216 30.9801L103.442 31.606C103.287 31.9954 103.022 32.3014 102.65 32.5239C102.277 32.7408 101.835 32.8493 101.323 32.8493Z" fill="white"/>
<path d="M109.997 28.1763C110.553 28.1763 110.996 28.3432 111.324 28.677C111.658 29.0107 111.824 29.5142 111.824 30.1874V32.7742H110.239V30.446C110.239 30.1289 110.178 29.8953 110.055 29.7451C109.939 29.5949 109.772 29.5198 109.555 29.5198C109.315 29.5198 109.124 29.6032 108.979 29.7701C108.834 29.937 108.762 30.1901 108.762 30.5295V32.7742H107.176V30.446C107.176 29.8285 106.948 29.5198 106.492 29.5198C106.247 29.5198 106.053 29.6032 105.908 29.7701C105.763 29.937 105.691 30.1901 105.691 30.5295V32.7742H104.106V28.2514H105.616V28.727C105.783 28.5434 105.98 28.4071 106.208 28.3181C106.442 28.2236 106.695 28.1763 106.968 28.1763C107.285 28.1763 107.569 28.2347 107.819 28.3515C108.069 28.4683 108.272 28.6464 108.428 28.8856C108.606 28.6575 108.832 28.4823 109.104 28.3599C109.377 28.2375 109.674 28.1763 109.997 28.1763Z" fill="white"/>
<path d="M115.179 31.6393C115.396 31.6393 115.583 31.6087 115.738 31.5476C115.9 31.4864 116.061 31.3862 116.222 31.2471L117.049 32.115C116.62 32.6045 115.98 32.8493 115.129 32.8493C114.601 32.8493 114.136 32.7492 113.736 32.5489C113.335 32.3486 113.024 32.0705 112.801 31.7144C112.584 31.3584 112.476 30.9551 112.476 30.5045C112.476 30.0594 112.584 29.6616 112.801 29.3112C113.018 28.9551 113.316 28.677 113.694 28.4767C114.078 28.2764 114.506 28.1763 114.979 28.1763C115.419 28.1763 115.819 28.2681 116.181 28.4517C116.548 28.6297 116.84 28.8939 117.057 29.2444C117.274 29.5893 117.382 30.001 117.382 30.4794L114.153 31.0969C114.325 31.4585 114.668 31.6393 115.179 31.6393ZM114.987 29.3028C114.715 29.3028 114.492 29.389 114.32 29.5615C114.147 29.7284 114.05 29.9704 114.028 30.2875L115.864 29.9287C115.808 29.7395 115.702 29.5893 115.547 29.4781C115.391 29.3612 115.204 29.3028 114.987 29.3028Z" fill="white"/>
<path d="M122.528 32.7742V30.396L121.368 32.3737H120.692L119.565 30.3626V32.7742H118.138V28.2514H119.807L121.067 30.6129L122.453 28.2514H123.946L123.955 32.7742H122.528Z" fill="white"/>
<path d="M127.177 32.9077C125.681 32.9077 124.933 32.2652 124.933 30.9801V28.2514H126.51V29.6867C126.627 29.6088 126.782 29.5448 126.977 29.4947C127.177 29.4447 127.406 29.4196 127.661 29.4196C128.218 29.4196 128.654 29.5615 128.972 29.8452C129.289 30.1234 129.447 30.5378 129.447 31.0886C129.447 31.6838 129.241 32.1372 128.83 32.4488C128.424 32.7548 127.873 32.9077 127.177 32.9077ZM129.823 28.2514H131.408V32.7742H129.823V28.2514ZM127.177 31.8229C127.394 31.8229 127.559 31.759 127.67 31.631C127.781 31.503 127.837 31.3334 127.837 31.122C127.837 30.9161 127.781 30.7548 127.67 30.638C127.559 30.5211 127.397 30.4627 127.186 30.4627C127.036 30.4627 126.902 30.4906 126.785 30.5462C126.668 30.6018 126.577 30.6769 126.51 30.7715V31.122C126.51 31.3389 126.565 31.5114 126.677 31.6393C126.788 31.7617 126.955 31.8229 127.177 31.8229Z" fill="white"/>
<path d="M5.38486 25.0039L10.0712 14.2102H11.6434V17.2639L8.31761 25.0039H10.7968V23.6131C10.7968 23.2745 11.3612 23.2503 11.6434 23.2806V27.5436C10.8694 27.5436 10.7565 27.2816 10.7968 27.1506V25.9412H7.8641L0.607804 42.1469H0.335693L2.18 36.5535C2.18 36.5535 0.547335 35.9186 1.09156 34.5581C1.63578 33.1975 4.90111 25.9412 4.90111 25.9412H1.09156V25.0039H5.38486Z" fill="#FF9900"/>
<path d="M17.5996 25.0039L12.9133 14.2102H11.3411V17.2639L14.6669 25.0039H12.1876V23.6131C12.1876 23.2745 11.6233 23.2503 11.3411 23.2806V27.5436C12.1151 27.5436 12.228 27.2816 12.1876 27.1506V25.9412H15.1204L22.3767 42.1469H22.6488L20.8045 36.5535C20.8045 36.5535 22.4371 35.9186 21.8929 34.5581C21.3487 33.1975 18.0834 25.9412 18.0834 25.9412H21.8929V25.0039H17.5996Z" fill="#FF9900"/>
<path fill-rule="evenodd" clip-rule="evenodd" d="M11.5227 12.638C13.2927 12.638 14.7275 11.2032 14.7275 9.43318C14.7275 7.66318 13.2927 6.22832 11.5227 6.22832C9.75268 6.22832 8.31781 7.66318 8.31781 9.43318C8.31781 11.2032 9.75268 12.638 11.5227 12.638ZM11.5227 14.3916C14.2612 14.3916 16.4811 12.1717 16.4811 9.43318C16.4811 6.69469 14.2612 4.47471 11.5227 4.47471C8.78419 4.47471 6.56421 6.69469 6.56421 9.43318C6.56421 12.1717 8.78419 14.3916 11.5227 14.3916Z" fill="white"/>
<path d="M10.6156 0H12.4297V4.77706H10.6156V0Z" fill="white"/>
</g>
<defs>
<clipPath id="clip0_406480_4081">
<rect width="131" height="42" fill="white" transform="translate(0.5)"/>
</clipPath>
</defs>
</svg>
