<svg width="41" height="40" viewBox="0 0 41 40" fill="none" xmlns="http://www.w3.org/2000/svg">
<path d="M17.6369 13.3208C17.6369 14.9697 18.9736 16.3066 20.6225 16.3066C22.2714 16.3066 23.6082 14.9697 23.6082 13.3208C23.6082 11.6719 22.2714 10.3352 20.6225 10.3352C18.9736 10.3352 17.6369 11.6719 17.6369 13.3208Z" fill="#666666"/>
<path fill-rule="evenodd" clip-rule="evenodd" d="M20.5 40C31.5457 40 40.5 31.0457 40.5 20C40.5 8.95431 31.5457 0 20.5 0C9.4543 0 0.5 8.95431 0.5 20C0.5 31.0457 9.4543 40 20.5 40ZM13.4 13.3207C13.4 9.33189 16.6336 6.09819 20.6225 6.09819C24.6115 6.09819 27.8451 9.33189 27.8451 13.3207C27.8451 17.3097 24.6115 20.5436 20.6225 20.5436C16.6336 20.5436 13.4 17.3097 13.4 13.3207ZM27.8882 24.2587C27.7966 24.3322 26.0638 25.7015 23.1723 26.2905L27.5369 30.6162C28.3045 31.3825 28.3054 32.6259 27.5391 33.3935C26.7728 34.1609 25.5296 34.1622 24.7618 33.3957L20.5245 29.2693L16.6759 33.3691C16.2906 33.7688 15.7766 33.9698 15.2621 33.9698C14.7713 33.9698 14.2802 33.7872 13.8991 33.4197C13.1183 32.6669 13.0957 31.4237 13.8485 30.6429L17.9913 26.3134C15.0188 25.7382 13.2145 24.3332 13.1216 24.2587C12.2755 23.5801 12.1396 22.3442 12.8182 21.498C13.4966 20.6519 14.7325 20.516 15.5788 21.1944C15.5966 21.2089 17.4838 22.6266 20.5244 22.6286C23.5651 22.6266 25.4132 21.2089 25.4311 21.1944C26.2774 20.516 27.5132 20.6519 28.1917 21.498C28.8702 22.3442 28.7343 23.5801 27.8882 24.2587Z" fill="#666666"/>
</svg>
