<svg width="41" height="40" viewBox="0 0 41 40" fill="none" xmlns="http://www.w3.org/2000/svg">
<path d="M20.582 0C9.53671 0 0.582031 8.95427 0.582031 20C0.582031 31.0457 9.53671 40 20.582 40C31.6274 40 40.582 31.0457 40.582 20C40.582 8.95427 31.6274 0 20.582 0ZM30.7271 22.1631C31.6593 23.0736 32.6455 23.9304 33.4823 24.935C33.853 25.3794 34.2025 25.839 34.4685 26.3558C34.8482 27.0928 34.5053 27.901 33.8457 27.9448L29.7483 27.9439C28.6901 28.0315 27.8479 27.6047 27.1379 26.8812C26.5712 26.3047 26.0454 25.6888 25.4995 25.0926C25.2765 24.8479 25.0416 24.6175 24.7617 24.4362C24.2031 24.0728 23.7178 24.1841 23.3978 24.7677C23.0716 25.3614 22.9972 26.0194 22.9661 26.6803C22.9215 27.6464 22.6301 27.8989 21.6607 27.9443C19.5893 28.0413 17.6239 27.7271 15.7972 26.6828C14.1857 25.7616 12.9385 24.4616 11.8516 22.9897C9.73518 20.1203 8.11431 16.971 6.65794 13.7314C6.33016 13.0017 6.56996 12.6114 7.37487 12.5962C8.71216 12.5704 10.0494 12.5737 11.3867 12.595C11.931 12.6036 12.2911 12.915 12.5002 13.4285C13.2228 15.2065 14.1088 16.8982 15.219 18.4671C15.5148 18.8849 15.8168 19.3015 16.2469 19.5965C16.7216 19.9223 17.0833 19.8146 17.3071 19.2847C17.4504 18.9479 17.5122 18.5878 17.5433 18.2269C17.6497 16.9907 17.6623 15.7549 17.4782 14.5236C17.3636 13.753 16.9303 13.2554 16.1622 13.1098C15.771 13.0357 15.8283 12.8908 16.0186 12.6674C16.3488 12.2811 16.6581 12.0421 17.2765 12.0421L21.9058 12.0413C22.6354 12.1846 22.7991 12.5119 22.8981 13.2469L22.9022 18.3914C22.8936 18.6758 23.045 19.5188 23.5557 19.705C23.9649 19.84 24.235 19.5118 24.4797 19.2528C25.5899 18.0747 26.3809 16.6842 27.0892 15.245C27.4019 14.6103 27.6715 13.9536 27.9334 13.2956C28.1282 12.809 28.431 12.5696 28.9802 12.5778L33.4381 12.5831C33.5694 12.5831 33.7029 12.5843 33.833 12.6069C34.5843 12.7353 34.7901 13.0586 34.5577 13.7915C34.1919 14.943 33.4811 15.9022 32.7862 16.8638C32.0415 17.8934 31.2472 18.887 30.5098 19.921C29.8322 20.8663 29.8858 21.3422 30.7271 22.1631Z" fill="#666666"/>
</svg>
